<svg width="858" height="157" viewBox="0 0 858 157" fill="none" xmlns="http://www.w3.org/2000/svg">
<path d="M5.30988 130V54.0097H44.839C51.0535 54.0097 56.1274 55.1504 60.0606 57.4316C64.0726 59.7129 67.0618 62.8988 69.0284 66.9894C70.9951 71.0013 71.9784 75.6819 71.9784 81.0311C71.9784 86.1443 70.6804 90.6676 68.0845 94.6008C65.5672 98.4554 62.1846 101.405 57.9367 103.451C58.802 104.159 59.5493 105.024 60.1786 106.047C60.808 106.991 61.5159 108.328 62.3026 110.058L71.0344 130H47.9069L39.8831 111.71C39.2538 110.294 38.4671 109.311 37.5232 108.76C36.6578 108.131 35.3992 107.816 33.7472 107.816H27.4934V130H5.30988ZM27.4934 90.8249H39.1751C42.4004 90.8249 44.8783 89.9989 46.6089 88.3469C48.4182 86.6163 49.3229 84.1777 49.3229 81.0311C49.3229 74.3446 46.1763 71.0013 39.8831 71.0013H27.4934V90.8249ZM92.3735 131.18C88.8336 131.18 85.5296 130.551 82.4617 129.292C79.4724 128.033 77.0732 126.067 75.2639 123.392C73.4546 120.718 72.5499 117.335 72.5499 113.244C72.5499 107.345 74.5165 102.782 78.4498 99.5567C82.383 96.2528 88.3222 94.6008 96.2674 94.6008H110.781V93.5388C110.781 91.3362 109.876 89.7236 108.067 88.7009C106.258 87.6783 103.072 87.167 98.5093 87.167C92.0588 87.167 85.687 88.1503 79.3938 90.1169V76.7832C82.2257 75.6819 85.7656 74.7772 90.0135 74.0693C94.2614 73.2826 98.588 72.8893 102.993 72.8893C111.882 72.8893 118.923 74.6986 124.115 78.3172C129.307 81.9357 131.903 87.6783 131.903 95.5448V130H112.551L111.489 125.516C109.522 127.247 106.966 128.623 103.819 129.646C100.751 130.669 96.936 131.18 92.3735 131.18ZM99.9253 118.2C102.443 118.2 104.567 117.768 106.297 116.902C108.106 116.037 109.601 114.975 110.781 113.716V106.755H100.043C95.1661 106.755 92.7275 108.682 92.7275 112.536C92.7275 116.312 95.1267 118.2 99.9253 118.2ZM165.928 131.18C158.455 131.18 153.027 129.292 149.645 125.516C146.262 121.74 144.571 116.627 144.571 110.176V90.4709H137.255V74.0693H144.571V62.6235L166.754 57.3136V74.0693H179.616L178.79 90.4709H166.754V108.524C166.754 110.884 167.344 112.576 168.524 113.598C169.704 114.542 171.513 115.014 173.952 115.014C176.233 115.014 178.554 114.621 180.914 113.834V128.584C176.745 130.315 171.749 131.18 165.928 131.18ZM217.597 131.18C211.068 131.18 205.286 130.118 200.252 127.994C195.296 125.791 191.402 122.527 188.57 118.2C185.817 113.874 184.44 108.524 184.44 102.153C184.44 93.2635 186.957 86.1837 191.992 80.9131C197.026 75.5639 204.539 72.8893 214.529 72.8893C223.654 72.8893 230.774 75.2099 235.887 79.8511C241.079 84.4924 243.675 90.8249 243.675 98.8487V108.642H204.854C205.876 111.632 207.882 113.756 210.871 115.014C213.861 116.273 217.912 116.902 223.025 116.902C226.25 116.902 229.476 116.627 232.701 116.076C236.005 115.447 238.64 114.739 240.607 113.952V127.286C235.1 129.882 227.43 131.18 217.597 131.18ZM204.854 96.6068H224.559V94.6008C224.559 92.3982 223.851 90.5889 222.435 89.1729C221.098 87.757 218.699 87.049 215.237 87.049C211.383 87.049 208.669 87.8749 207.095 89.5269C205.601 91.1002 204.854 93.4602 204.854 96.6068ZM251.906 130V54.0097H273.499L292.379 92.5948L311.141 54.0097H332.616V130H310.433V92.0049L298.279 117.02H286.361L274.089 92.0049V130H251.906ZM357.898 150.768C354.751 150.768 352.077 150.571 349.874 150.178C347.75 149.863 345.626 149.312 343.502 148.526V133.422C344.761 133.894 345.941 134.209 347.042 134.366C348.222 134.523 349.441 134.602 350.7 134.602C353.847 134.602 356.128 134.209 357.544 133.422C359.039 132.635 360.533 131.062 362.028 128.702L336.776 74.0693H360.022L373.12 106.991L385.863 74.0693H408.991L388.341 124.69C385.116 132.635 381.143 138.968 376.423 143.688C371.782 148.408 365.607 150.768 357.898 150.768Z" fill="#060625"/>
<path d="M414.844 130V54.0097H454.373C460.587 54.0097 465.661 55.1504 469.594 57.4316C473.606 59.7129 476.596 62.8988 478.562 66.9894C480.529 71.0013 481.512 75.6819 481.512 81.0311C481.512 86.1443 480.214 90.6676 477.618 94.6008C475.101 98.4554 471.718 101.405 467.47 103.451C468.336 104.159 469.083 105.024 469.712 106.047C470.342 106.991 471.05 108.328 471.836 110.058L480.568 130H457.441L449.417 111.71C448.788 110.294 448.001 109.311 447.057 108.76C446.192 108.131 444.933 107.816 443.281 107.816H437.027V130H414.844ZM437.027 90.8249H448.709C451.934 90.8249 454.412 89.9989 456.143 88.3469C457.952 86.6163 458.857 84.1777 458.857 81.0311C458.857 74.3446 455.71 71.0013 449.417 71.0013H437.027V90.8249ZM518.813 131.18C512.284 131.18 506.502 130.118 501.467 127.994C496.512 125.791 492.618 122.527 489.786 118.2C487.032 113.874 485.656 108.524 485.656 102.153C485.656 93.2635 488.173 86.1837 493.208 80.9131C498.242 75.5639 505.755 72.8893 515.745 72.8893C524.87 72.8893 531.989 75.2099 537.103 79.8511C542.295 84.4924 544.891 90.8249 544.891 98.8487V108.642H506.069C507.092 111.632 509.098 113.756 512.087 115.014C515.077 116.273 519.128 116.902 524.241 116.902C527.466 116.902 530.691 116.627 533.917 116.076C537.221 115.447 539.856 114.739 541.823 113.952V127.286C536.316 129.882 528.646 131.18 518.813 131.18ZM506.069 96.6068H525.775V94.6008C525.775 92.3982 525.067 90.5889 523.651 89.1729C522.314 87.757 519.914 87.049 516.453 87.049C512.599 87.049 509.885 87.8749 508.311 89.5269C506.817 91.1002 506.069 93.4602 506.069 96.6068ZM574.375 131.18C569.577 131.18 565.053 130.826 560.805 130.118C556.636 129.489 553.332 128.663 550.894 127.64V111.71C553.647 112.969 556.911 113.952 560.687 114.66C564.542 115.368 567.807 115.722 570.481 115.722C573.313 115.722 575.437 115.644 576.853 115.486C578.348 115.329 579.095 114.66 579.095 113.48C579.095 112.143 577.797 111.12 575.201 110.412C572.605 109.704 569.341 108.682 565.407 107.345C560.294 105.535 556.479 103.411 553.962 100.973C551.444 98.534 550.186 94.9941 550.186 90.3529C550.186 84.7677 552.388 80.4804 556.794 77.4912C561.199 74.4233 568.121 72.8893 577.561 72.8893C581.18 72.8893 584.916 73.1646 588.771 73.7153C592.625 74.2659 595.654 74.8952 597.857 75.6032V91.1789C595.497 90.1562 592.901 89.4089 590.069 88.9369C587.315 88.4649 584.798 88.2289 582.517 88.2289C580 88.2289 577.758 88.3469 575.791 88.5829C573.824 88.8189 572.841 89.4876 572.841 90.5889C572.841 91.8475 573.942 92.7522 576.145 93.3028C578.426 93.8535 581.455 94.7188 585.231 95.8988C589.479 97.1574 592.783 98.534 595.143 100.029C597.581 101.523 599.273 103.333 600.217 105.457C601.239 107.581 601.75 110.216 601.75 113.362C601.75 119.026 599.43 123.431 594.789 126.578C590.226 129.646 583.422 131.18 574.375 131.18ZM630.342 131.18C623.813 131.18 618.699 129.331 615.002 125.634C611.305 121.937 609.456 116.509 609.456 109.35V74.0693H631.64V107.581C631.64 112.458 634.118 114.896 639.074 114.896C640.883 114.896 642.653 114.503 644.383 113.716C646.114 112.93 647.491 111.946 648.513 110.766V74.0693H670.697V130H649.929L649.339 125.752C647.137 127.325 644.423 128.623 641.198 129.646C638.051 130.669 634.432 131.18 630.342 131.18ZM681.259 130V74.0693H701.791L702.381 78.5532C704.82 76.9012 707.534 75.5639 710.523 74.5412C713.591 73.4399 716.934 72.8893 720.553 72.8893C724.171 72.8893 727.003 73.4006 729.048 74.4233C731.094 75.4459 732.746 76.9405 734.004 78.9071C736.522 77.0979 739.353 75.6426 742.5 74.5412C745.725 73.4399 749.501 72.8893 753.828 72.8893C760.357 72.8893 765.156 74.6199 768.224 78.0812C771.291 81.4638 772.825 86.6556 772.825 93.6568V130H750.996V96.2528C750.996 93.7355 750.485 91.9655 749.462 90.9429C748.439 89.8416 746.748 89.2909 744.388 89.2909C741.32 89.2909 738.803 90.3922 736.836 92.5948C736.994 93.6175 737.072 94.6008 737.072 95.5448C737.072 96.4101 737.072 97.3934 737.072 98.4947V130H716.541V95.8988C716.541 93.6175 716.147 91.9655 715.361 90.9429C714.574 89.8416 713.079 89.2909 710.877 89.2909C709.382 89.2909 707.927 89.6842 706.511 90.4709C705.095 91.2575 703.836 92.2015 702.735 93.3028V130H681.259ZM813 131.18C806.471 131.18 800.689 130.118 795.654 127.994C790.698 125.791 786.804 122.527 783.972 118.2C781.219 113.874 779.843 108.524 779.843 102.153C779.843 93.2635 782.36 86.1837 787.394 80.9131C792.429 75.5639 799.941 72.8893 809.932 72.8893C819.057 72.8893 826.176 75.2099 831.289 79.8511C836.481 84.4924 839.077 90.8249 839.077 98.8487V108.642H800.256C801.279 111.632 803.285 113.756 806.274 115.014C809.263 116.273 813.314 116.902 818.428 116.902C821.653 116.902 824.878 116.627 828.103 116.076C831.407 115.447 834.043 114.739 836.009 113.952V127.286C830.503 129.882 822.833 131.18 813 131.18ZM800.256 96.6068H819.962V94.6008C819.962 92.3982 819.254 90.5889 817.838 89.1729C816.5 87.757 814.101 87.049 810.64 87.049C806.785 87.049 804.071 87.8749 802.498 89.5269C801.003 91.1002 800.256 93.4602 800.256 96.6068Z" fill="url(#paint0_linear_97_1421)"/>
<defs>
<linearGradient id="paint0_linear_97_1421" x1="0" y1="64" x2="952" y2="64" gradientUnits="userSpaceOnUse">
<stop offset="0.395" stop-color="#1DA7BF"/>
<stop offset="1" stop-color="#713DFF"/>
</linearGradient>
</defs>
</svg>
